<svg xmlns="http://www.w3.org/2000/svg" xmlns:xlink="http://www.w3.org/1999/xlink" width="500" zoomAndPan="magnify" viewBox="0 0 375 374.999991" height="500" preserveAspectRatio="xMidYMid meet" version="1.2"><defs/><g id="6256d8ad34"><rect x="0" width="375" y="0" height="374.999991" style="fill:#ffffff;fill-opacity:1;stroke:none;"/><rect x="0" width="375" y="0" height="374.999991" style="fill:#000000;fill-opacity:1;stroke:none;"/><g style="fill:#000000;fill-opacity:1;"><g transform="translate(92.476515, 238.467082)"><path style="stroke:none" d="M 140.945312 -126.539062 C 140.109375 -118.683594 137.949219 -111.683594 134.46875 -105.539062 C 131.257812 -99.871094 127.375 -94.859375 122.820312 -90.503906 C 118.433594 -86.316406 113.707031 -82.769531 108.644531 -79.867188 C 104.183594 -77.3125 99.929688 -75.113281 95.890625 -73.265625 L 90.183594 -85.769531 L 100.265625 -95.109375 C 107.21875 -87.601562 113.476562 -80.925781 119.039062 -75.089844 L 133.984375 -59.488281 L 145.320312 -47.796875 C 148.425781 -44.617188 151.082031 -41.960938 153.289062 -39.828125 C 158.457031 -34.738281 161.945312 -31.453125 163.757812 -29.976562 C 164.34375 -29.519531 165.019531 -29.191406 165.78125 -28.996094 C 167.28125 -28.609375 168.683594 -28.414062 169.988281 -28.414062 C 171.109375 -28.414062 172.164062 -28.515625 173.148438 -28.722656 C 174.160156 -28.933594 174.800781 -29.097656 175.070312 -29.210938 L 188.105469 -5.148438 C 184.40625 -2.679688 181.164062 -0.453125 178.378906 1.53125 C 175.199219 3.792969 172.253906 5.75 169.539062 7.394531 C 166.339844 9.335938 163.226562 10.855469 160.191406 11.960938 C 156.484375 13.308594 152.671875 13.980469 148.753906 13.980469 C 145.785156 13.980469 142.867188 13.539062 140 12.65625 C 137.371094 11.847656 134.714844 10.632812 132.039062 9.015625 C 129.777344 7.648438 127.421875 5.964844 124.972656 3.964844 C 122.730469 2.132812 120.316406 -0.0273438 117.734375 -2.519531 C 115.929688 -4.324219 113.429688 -7.011719 110.238281 -10.582031 L 100.101562 -21.910156 L 88.410156 -34.972656 C 84.410156 -39.445312 80.648438 -43.578125 77.125 -47.375 C 73.640625 -51.128906 70.578125 -54.351562 67.929688 -57.035156 C 66.742188 -58.242188 65.769531 -59.183594 65.019531 -59.863281 C 64.75 -60.109375 64.535156 -60.292969 64.382812 -60.417969 C 64.464844 -60.351562 64.621094 -60.25 64.847656 -60.109375 C 64.332031 -60.417969 63.71875 -60.71875 63 -61.011719 C 62.46875 -61.242188 61.835938 -61.441406 61.109375 -61.621094 C 61.238281 -61.589844 61.445312 -61.589844 61.726562 -61.625 L 52.320312 -86.585938 L 73.140625 -100.941406 L 77.417969 -100.941406 C 79.210938 -100.941406 80.941406 -101.363281 82.609375 -102.207031 C 84.324219 -103.074219 85.875 -104.425781 87.253906 -106.261719 C 88.925781 -108.480469 90.28125 -111.34375 91.324219 -114.851562 C 92.390625 -118.441406 92.800781 -122.675781 92.5625 -127.558594 C 92.480469 -129.507812 92.09375 -131.1875 91.398438 -132.589844 C 90.5 -134.410156 89.355469 -136.03125 87.960938 -137.445312 C 86.378906 -139.054688 84.554688 -140.46875 82.484375 -141.6875 C 80.0625 -143.117188 77.589844 -144.308594 75.0625 -145.261719 C 72.570312 -146.207031 70.113281 -146.902344 67.699219 -147.347656 C 65.304688 -147.792969 63.175781 -148.011719 61.316406 -148.011719 C 59.65625 -148.011719 57.835938 -147.976562 55.859375 -147.902344 C 53.542969 -147.816406 51.226562 -147.773438 48.910156 -147.773438 L 48.910156 -161.515625 L 62.648438 -161.25 L 61.871094 -121.40625 L 61.097656 -90.199219 L 60.4375 -66.714844 C 60.234375 -60.035156 60.011719 -54.339844 59.769531 -49.628906 C 59.285156 -38.609375 58.828125 -31.054688 58.402344 -26.96875 L 58.371094 -26.660156 L 58.324219 -26.351562 C 57.96875 -23.976562 57.386719 -21.578125 56.578125 -19.152344 C 55.894531 -17.105469 54.988281 -14.953125 53.863281 -12.703125 C 52.59375 -10.164062 51.019531 -7.71875 49.140625 -5.371094 L 38.410156 -13.957031 L 40 -27.605469 C 42.957031 -27.261719 45.574219 -27.074219 47.855469 -27.042969 C 50.53125 -27.003906 52.992188 -26.984375 55.230469 -26.984375 C 60.15625 -26.984375 63.632812 -27.109375 65.660156 -27.359375 C 66.789062 -27.496094 67.640625 -27.613281 68.222656 -27.707031 C 68.375 -27.730469 68.460938 -27.742188 68.476562 -27.746094 C 67.9375 -27.632812 67.347656 -27.449219 66.707031 -27.195312 L 77.957031 -2.140625 C 73.75 -0.0390625 69.78125 1.90625 66.050781 3.6875 C 62.136719 5.5625 58.382812 7.226562 54.78125 8.683594 C 50.832031 10.28125 47.011719 11.535156 43.3125 12.449219 C 39.171875 13.46875 35.070312 13.980469 31.015625 13.980469 L -34.914062 13.980469 L 13.101562 -18.214844 L 20.757812 -6.800781 L 7.488281 -10.371094 C 7.941406 -12.066406 8.394531 -14.15625 8.84375 -16.636719 C 9.3125 -19.234375 9.730469 -22.050781 10.09375 -25.085938 C 10.46875 -28.195312 10.789062 -31.425781 11.050781 -34.777344 L 11.824219 -45.15625 C 12.28125 -52.75 12.628906 -60.886719 12.863281 -69.558594 L 13.335938 -104.683594 L 13.578125 -119.6875 L 13.753906 -134.660156 C 13.792969 -139.5625 13.855469 -144.242188 13.933594 -148.703125 C 14.011719 -153.035156 14.050781 -156.867188 14.050781 -160.207031 L 27.792969 -160.207031 L 28.859375 -146.503906 L 7.386719 -144.835938 L -0.75 -170.320312 L 26.914062 -186.917969 L 31.972656 -186.023438 C 32.644531 -185.90625 33.453125 -185.835938 34.390625 -185.8125 C 35.910156 -185.777344 37.488281 -185.757812 39.125 -185.757812 C 42.164062 -185.757812 45.164062 -185.878906 48.125 -186.128906 C 51.351562 -186.394531 54.558594 -186.703125 57.746094 -187.050781 L 67.523438 -188.070312 C 71.199219 -188.4375 74.894531 -188.621094 78.613281 -188.621094 C 86.535156 -188.621094 94.292969 -187.289062 101.886719 -184.625 C 109.671875 -181.894531 116.554688 -177.925781 122.535156 -172.710938 C 128.691406 -167.34375 133.492188 -160.847656 136.941406 -153.222656 C 140.574219 -145.179688 141.914062 -136.320312 140.957031 -126.644531 Z M 113.605469 -129.351562 C 114.078125 -134.144531 113.511719 -138.328125 111.894531 -141.898438 C 110.09375 -145.886719 107.621094 -149.25 104.472656 -151.992188 C 101.148438 -154.890625 97.253906 -157.125 92.792969 -158.6875 C 88.140625 -160.320312 83.414062 -161.136719 78.613281 -161.136719 C 75.808594 -161.136719 73.0625 -161 70.375 -160.730469 L 60.707031 -159.722656 C 57.292969 -159.355469 53.859375 -159.023438 50.40625 -158.738281 C 46.6875 -158.425781 42.925781 -158.273438 39.125 -158.273438 C 37.265625 -158.273438 35.464844 -158.292969 33.722656 -158.335938 C 31.402344 -158.394531 29.226562 -158.601562 27.195312 -158.957031 L 29.582031 -172.492188 L 36.652344 -160.707031 L 13.394531 -146.75 L 6.324219 -158.535156 L 5.257812 -172.234375 L 41.535156 -175.058594 L 41.535156 -160.207031 C 41.535156 -156.703125 41.496094 -152.703125 41.414062 -148.207031 C 41.335938 -143.839844 41.277344 -139.214844 41.238281 -134.335938 L 41.058594 -119.25 L 40.820312 -104.3125 L 40.339844 -68.816406 C 40.097656 -59.835938 39.726562 -51.269531 39.234375 -43.117188 L 38.453125 -32.621094 C 38.160156 -28.894531 37.800781 -25.285156 37.382812 -21.796875 C 36.953125 -18.230469 36.457031 -14.882812 35.890625 -11.753906 C 35.304688 -8.511719 34.683594 -5.667969 34.027344 -3.226562 L 32.6875 1.746094 L 17.910156 11.652344 L 10.257812 0.238281 L 10.257812 -13.503906 L 31.015625 -13.503906 C 32.84375 -13.503906 34.75 -13.75 36.730469 -14.238281 C 39.15625 -14.835938 41.734375 -15.6875 44.46875 -16.792969 C 47.546875 -18.039062 50.789062 -19.476562 54.191406 -21.105469 C 57.777344 -22.820312 61.601562 -24.695312 65.667969 -26.726562 L 71.8125 -14.433594 L 76.914062 -1.675781 C 75.769531 -1.214844 74.320312 -0.847656 72.566406 -0.566406 C 71.65625 -0.421875 70.472656 -0.257812 69.015625 -0.078125 C 65.875 0.308594 61.28125 0.5 55.230469 0.5 C 52.859375 0.5 50.265625 0.480469 47.457031 0.441406 C 44.25 0.394531 40.703125 0.144531 36.824219 -0.304688 L 12.183594 -3.171875 L 27.679688 -22.542969 C 28.347656 -23.375 28.878906 -24.191406 29.28125 -24.992188 C 29.824219 -26.082031 30.230469 -27.03125 30.503906 -27.84375 C 30.808594 -28.761719 31.023438 -29.625 31.144531 -30.429688 L 44.734375 -28.390625 L 31.066406 -29.816406 C 31.433594 -33.359375 31.851562 -40.4375 32.320312 -51.050781 C 32.554688 -55.566406 32.769531 -61.042969 32.964844 -67.484375 L 33.621094 -90.882812 L 34.394531 -121.941406 L 35.429688 -175.261719 L 48.910156 -175.261719 C 50.886719 -175.261719 52.863281 -175.296875 54.839844 -175.371094 C 57.160156 -175.457031 59.316406 -175.5 61.316406 -175.5 C 64.859375 -175.5 68.65625 -175.125 72.703125 -174.375 C 76.730469 -173.628906 80.757812 -172.496094 84.785156 -170.972656 C 88.78125 -169.460938 92.667969 -167.589844 96.449219 -165.363281 C 100.582031 -162.921875 104.285156 -160.042969 107.554688 -156.722656 C 111.011719 -153.207031 113.84375 -149.21875 116.042969 -144.757812 C 118.453125 -139.878906 119.777344 -134.597656 120.011719 -128.914062 C 120.40625 -120.910156 119.628906 -113.617188 117.671875 -107.027344 C 115.691406 -100.355469 112.871094 -94.589844 109.214844 -89.730469 C 105.265625 -84.488281 100.53125 -80.472656 95.011719 -77.679688 C 89.441406 -74.863281 83.578125 -73.457031 77.417969 -73.457031 L 77.417969 -87.199219 L 85.21875 -75.886719 L 67.921875 -63.957031 L 60.121094 -75.269531 L 58.515625 -88.917969 C 61.503906 -89.269531 64.53125 -89.074219 67.605469 -88.328125 C 69.816406 -87.789062 71.769531 -87.15625 73.464844 -86.429688 C 75.453125 -85.609375 77.382812 -84.640625 79.253906 -83.515625 C 81.230469 -82.296875 83.980469 -79.902344 87.503906 -76.328125 C 90.34375 -73.449219 93.601562 -70.027344 97.273438 -66.070312 C 100.910156 -62.152344 104.78125 -57.894531 108.890625 -53.300781 L 120.582031 -40.238281 L 130.726562 -28.902344 C 133.578125 -25.714844 135.613281 -23.511719 136.828125 -22.292969 C 138.859375 -20.332031 140.699219 -18.675781 142.355469 -17.324219 C 143.800781 -16.144531 145.105469 -15.203125 146.261719 -14.503906 C 147.003906 -14.054688 147.613281 -13.757812 148.082031 -13.613281 C 148.316406 -13.539062 148.539062 -13.503906 148.753906 -13.503906 C 149.445312 -13.503906 150.125 -13.625 150.796875 -13.871094 C 152.136719 -14.355469 153.632812 -15.101562 155.285156 -16.105469 C 157.421875 -17.398438 159.804688 -18.984375 162.429688 -20.855469 C 165.449219 -23.003906 168.925781 -25.390625 172.863281 -28.015625 L 180.484375 -16.582031 L 185.898438 -3.949219 C 183.941406 -3.113281 181.558594 -2.398438 178.753906 -1.816406 C 175.921875 -1.226562 173 -0.929688 169.988281 -0.929688 C 166.359375 -0.929688 162.671875 -1.414062 158.925781 -2.378906 C 154.4375 -3.535156 150.261719 -5.632812 146.394531 -8.671875 C 143.914062 -10.695312 139.847656 -14.488281 134.199219 -20.054688 C 131.792969 -22.375 128.921875 -25.246094 125.585938 -28.667969 L 114.136719 -40.476562 L 99.140625 -56.128906 C 93.488281 -62.0625 87.144531 -68.828125 80.101562 -76.429688 L 67.183594 -90.375 L 84.476562 -98.269531 C 87.75 -99.765625 91.253906 -101.582031 94.984375 -103.71875 C 98.109375 -105.507812 101.058594 -107.730469 103.832031 -110.378906 C 106.433594 -112.863281 108.671875 -115.765625 110.550781 -119.082031 C 112.160156 -121.921875 113.183594 -125.378906 113.617188 -129.453125 Z M 186.988281 -4.527344 L 183.847656 -2.957031 L 180.484375 -2.957031 L 180.484375 -16.699219 L 194.226562 -16.699219 L 194.226562 -16.582031 L 166.742188 -16.582031 L 166.742188 -30.441406 L 180.605469 -30.441406 L 180.605469 -16.699219 L 170.886719 -26.417969 C 171.976562 -27.507812 173.207031 -28.398438 174.578125 -29.082031 C 176.550781 -30.070312 178.640625 -30.5625 180.84375 -30.5625 Z M 174.695312 -29.113281 L 180.84375 -16.820312 L 180.84375 -3.078125 C 182.964844 -3.078125 184.972656 -3.550781 186.867188 -4.5 C 188.160156 -5.144531 189.308594 -5.972656 190.320312 -6.984375 L 186.296875 -2.957031 L 180.484375 -2.957031 L 180.484375 -16.699219 L 194.226562 -16.699219 L 194.226562 -16.582031 L 166.742188 -16.582031 L 166.742188 -30.441406 L 180.605469 -30.441406 L 180.605469 -16.699219 L 174.457031 -28.992188 Z M 174.695312 -29.113281 "/></g></g><g style="fill:#ffffff;fill-opacity:1;"><g transform="translate(92.476515, 238.467082)"><path style="stroke:none" d="M 127.28125 -128 C 126.644531 -122.03125 125.050781 -116.796875 122.5 -112.296875 C 119.957031 -107.804688 116.894531 -103.851562 113.3125 -100.4375 C 109.738281 -97.019531 105.90625 -94.132812 101.8125 -91.78125 C 97.71875 -89.4375 93.84375 -87.429688 90.1875 -85.765625 C 97.175781 -78.210938 103.472656 -71.492188 109.078125 -65.609375 C 114.691406 -59.722656 119.6875 -54.515625 124.0625 -49.984375 C 128.4375 -45.453125 132.234375 -41.535156 135.453125 -38.234375 C 138.671875 -34.929688 141.429688 -32.164062 143.734375 -29.9375 C 149.140625 -24.613281 152.921875 -21.078125 155.078125 -19.328125 C 157.296875 -17.578125 159.71875 -16.363281 162.34375 -15.6875 C 164.96875 -15.007812 167.515625 -14.671875 169.984375 -14.671875 C 172.046875 -14.671875 174.03125 -14.867188 175.9375 -15.265625 C 177.851562 -15.660156 179.367188 -16.097656 180.484375 -16.578125 C 176.660156 -14.035156 173.296875 -11.726562 170.390625 -9.65625 C 167.492188 -7.59375 164.832031 -5.820312 162.40625 -4.34375 C 159.976562 -2.875 157.671875 -1.742188 155.484375 -0.953125 C 153.296875 -0.160156 151.050781 0.234375 148.75 0.234375 C 147.15625 0.234375 145.582031 0 144.03125 -0.46875 C 142.488281 -0.945312 140.859375 -1.703125 139.140625 -2.734375 C 137.429688 -3.773438 135.601562 -5.085938 133.65625 -6.671875 C 131.707031 -8.265625 129.582031 -10.175781 127.28125 -12.40625 C 125.769531 -13.914062 123.503906 -16.359375 120.484375 -19.734375 C 117.460938 -23.117188 114.082031 -26.898438 110.34375 -31.078125 C 106.601562 -35.253906 102.703125 -39.609375 98.640625 -44.140625 C 94.585938 -48.671875 90.769531 -52.863281 87.1875 -56.71875 C 83.613281 -60.570312 80.453125 -63.890625 77.703125 -66.671875 C 74.960938 -69.460938 73.078125 -71.175781 72.046875 -71.8125 C 70.859375 -72.53125 69.585938 -73.164062 68.234375 -73.71875 C 67.117188 -74.195312 65.820312 -74.613281 64.34375 -74.96875 C 62.875 -75.320312 61.46875 -75.421875 60.125 -75.265625 L 77.421875 -87.203125 C 81.390625 -87.203125 85.179688 -88.113281 88.796875 -89.9375 C 92.421875 -91.769531 95.566406 -94.453125 98.234375 -97.984375 C 100.898438 -101.523438 102.988281 -105.835938 104.5 -110.921875 C 106.007812 -116.015625 106.601562 -121.785156 106.28125 -128.234375 C 106.125 -132.046875 105.269531 -135.519531 103.71875 -138.65625 C 102.164062 -141.800781 100.175781 -144.609375 97.75 -147.078125 C 95.320312 -149.546875 92.554688 -151.691406 89.453125 -153.515625 C 86.359375 -155.347656 83.179688 -156.878906 79.921875 -158.109375 C 76.660156 -159.347656 73.421875 -160.265625 70.203125 -160.859375 C 66.984375 -161.453125 64.019531 -161.75 61.3125 -161.75 C 59.476562 -161.75 57.488281 -161.707031 55.34375 -161.625 C 53.195312 -161.550781 51.050781 -161.515625 48.90625 -161.515625 C 48.664062 -146.640625 48.40625 -133.359375 48.125 -121.671875 C 47.851562 -109.984375 47.597656 -99.601562 47.359375 -90.53125 C 47.117188 -81.46875 46.898438 -73.65625 46.703125 -67.09375 C 46.503906 -60.53125 46.285156 -54.945312 46.046875 -50.34375 C 45.566406 -39.519531 45.128906 -32.203125 44.734375 -28.390625 C 44.492188 -26.796875 44.097656 -25.164062 43.546875 -23.5 C 43.066406 -22.070312 42.40625 -20.519531 41.5625 -18.84375 C 40.726562 -17.175781 39.675781 -15.546875 38.40625 -13.953125 C 41.832031 -13.554688 44.914062 -13.335938 47.65625 -13.296875 C 50.394531 -13.253906 52.921875 -13.234375 55.234375 -13.234375 C 60.710938 -13.234375 64.742188 -13.390625 67.328125 -13.703125 C 69.921875 -14.023438 71.414062 -14.269531 71.8125 -14.4375 C 67.675781 -12.363281 63.773438 -10.453125 60.109375 -8.703125 C 56.453125 -6.953125 52.953125 -5.398438 49.609375 -4.046875 C 46.273438 -2.703125 43.078125 -1.648438 40.015625 -0.890625 C 36.953125 -0.140625 33.953125 0.234375 31.015625 0.234375 L 10.265625 0.234375 L 20.75 -6.796875 C 21.3125 -8.867188 21.847656 -11.332031 22.359375 -14.1875 C 22.878906 -17.050781 23.335938 -20.132812 23.734375 -23.4375 C 24.128906 -26.738281 24.46875 -30.15625 24.75 -33.6875 C 25.03125 -37.226562 25.289062 -40.710938 25.53125 -44.140625 C 26.007812 -52.003906 26.363281 -60.351562 26.59375 -69.1875 C 26.757812 -81.351562 26.921875 -93.125 27.078125 -104.5 C 27.160156 -109.34375 27.238281 -114.328125 27.3125 -119.453125 C 27.394531 -124.585938 27.457031 -129.597656 27.5 -134.484375 C 27.539062 -139.378906 27.597656 -144.035156 27.671875 -148.453125 C 27.753906 -152.867188 27.796875 -156.785156 27.796875 -160.203125 L 6.328125 -158.53125 L 29.578125 -172.484375 C 30.929688 -172.242188 32.421875 -172.101562 34.046875 -172.0625 C 35.679688 -172.03125 37.375 -172.015625 39.125 -172.015625 C 42.539062 -172.015625 45.921875 -172.148438 49.265625 -172.421875 C 52.609375 -172.703125 55.925781 -173.019531 59.21875 -173.375 C 62.519531 -173.738281 65.757812 -174.078125 68.9375 -174.390625 C 72.125 -174.710938 75.347656 -174.875 78.609375 -174.875 C 84.972656 -174.875 91.210938 -173.800781 97.328125 -171.65625 C 103.453125 -169.507812 108.84375 -166.40625 113.5 -162.34375 C 118.15625 -158.289062 121.789062 -153.359375 124.40625 -147.546875 C 127.03125 -141.742188 127.988281 -135.226562 127.28125 -128 Z M 180.84375 -16.8125 C 180.675781 -16.738281 180.59375 -16.703125 180.59375 -16.703125 L 180.484375 -16.703125 L 180.484375 -16.578125 L 180.484375 -16.703125 L 180.59375 -16.703125 C 180.675781 -16.773438 180.757812 -16.8125 180.84375 -16.8125 Z M 180.84375 -16.8125 "/></g></g><g style="fill:#000000;fill-opacity:1;"><g transform="translate(179.273991, 293.850188)"><path style="stroke:none" d="M 60.589844 -132.53125 C 57.398438 -130.382812 54.441406 -128.546875 51.71875 -127.027344 C 48.882812 -125.441406 46.179688 -124.121094 43.605469 -123.0625 L 39.410156 -133.25 L 50.425781 -132.960938 L 49.613281 -101.96875 L 49.039062 -77.75 L 48.660156 -59.507812 L 48.421875 -46.386719 C 48.230469 -38.027344 48.167969 -32.367188 48.230469 -29.402344 L 48.234375 -29.117188 L 48.226562 -28.832031 C 48.152344 -26.445312 47.882812 -23.4375 47.425781 -19.808594 C 46.933594 -15.914062 45.996094 -11.660156 44.605469 -7.054688 C 43.222656 -2.464844 41.3125 2.3125 38.882812 7.28125 C 36.34375 12.46875 33.074219 17.527344 29.066406 22.449219 C 25.042969 27.398438 20.183594 32.046875 14.488281 36.402344 C 8.710938 40.816406 1.964844 44.609375 -5.757812 47.785156 L -15.132812 27.871094 C -11.375 25.867188 -8.195312 23.511719 -5.589844 20.808594 C -2.824219 17.941406 -0.507812 14.855469 1.363281 11.550781 C 3.320312 8.09375 4.902344 4.488281 6.105469 0.742188 C 7.375 -3.207031 8.332031 -7.132812 8.976562 -11.03125 C 9.648438 -15.089844 10.101562 -19.003906 10.332031 -22.773438 C 10.574219 -26.695312 10.695312 -30.261719 10.695312 -33.480469 L 10.695312 -130.09375 L 21.714844 -130.09375 L 22.777344 -119.125 C 20.855469 -118.941406 18.503906 -118.691406 15.722656 -118.378906 C 12.996094 -118.070312 9.898438 -117.671875 6.4375 -117.175781 L -32.84375 -111.566406 L -2.082031 -136.628906 C 1.925781 -139.894531 5.636719 -142.429688 9.054688 -144.238281 C 12.300781 -145.953125 15.164062 -147.253906 17.648438 -148.132812 C 20.953125 -149.238281 23.960938 -149.886719 26.667969 -150.078125 L 27.21875 -150.117188 L 27.769531 -150.101562 C 29.722656 -150.046875 31.917969 -150.074219 34.347656 -150.191406 C 36.90625 -150.3125 39.371094 -150.476562 41.738281 -150.683594 C 43.976562 -150.882812 46.007812 -151.136719 47.835938 -151.4375 C 49.304688 -151.683594 50.28125 -151.890625 50.761719 -152.0625 Z M 48.269531 -150.808594 L 54.429688 -141.667969 L 58.097656 -131.277344 C 56.40625 -130.679688 54.195312 -130.15625 51.457031 -129.699219 C 49.074219 -129.300781 46.484375 -128.980469 43.683594 -128.730469 C 41.011719 -128.496094 38.246094 -128.308594 35.386719 -128.175781 C 32.398438 -128.035156 29.648438 -128 27.140625 -128.070312 L 27.453125 -139.085938 L 28.238281 -128.09375 C 27.375 -128.03125 26.300781 -127.789062 25.015625 -127.363281 C 23.542969 -126.839844 21.65625 -125.96875 19.355469 -124.753906 C 17.226562 -123.625 14.71875 -121.890625 11.839844 -119.542969 L 4.878906 -128.085938 L 3.320312 -138.996094 C 7 -139.519531 10.3125 -139.949219 13.261719 -140.28125 C 16.15625 -140.605469 18.621094 -140.867188 20.652344 -141.0625 L 32.734375 -142.234375 L 32.734375 -33.480469 C 32.734375 -29.8125 32.601562 -25.789062 32.332031 -21.421875 C 32.050781 -16.898438 31.515625 -12.234375 30.722656 -7.433594 C 29.898438 -2.464844 28.6875 2.507812 27.089844 7.484375 C 25.421875 12.664062 23.242188 17.640625 20.542969 22.40625 C 17.757812 27.332031 14.335938 31.898438 10.277344 36.105469 C 6.058594 40.480469 1.046875 44.21875 -4.761719 47.316406 L -9.949219 37.59375 L -14.140625 27.402344 C -8.210938 24.964844 -3.132812 22.128906 1.105469 18.890625 C 5.421875 15.589844 9.042969 12.140625 11.96875 8.542969 C 14.914062 4.921875 17.285156 1.273438 19.085938 -2.402344 C 20.992188 -6.300781 22.464844 -9.972656 23.503906 -13.417969 C 24.539062 -16.84375 25.222656 -19.894531 25.558594 -22.566406 C 25.929688 -25.507812 26.144531 -27.824219 26.195312 -29.519531 L 37.210938 -29.175781 L 26.191406 -28.949219 C 26.125 -32.234375 26.191406 -38.179688 26.382812 -46.785156 L 26.625 -59.96875 L 27.007812 -78.269531 L 27.582031 -102.546875 L 28.582031 -140.710938 L 35.214844 -143.441406 C 36.980469 -144.167969 38.898438 -145.109375 40.972656 -146.269531 C 43.160156 -147.488281 45.59375 -149.003906 48.269531 -150.808594 Z M 48.269531 -150.808594 "/></g></g><g style="fill:#ffffff;fill-opacity:1;"><g transform="translate(179.273991, 293.850188)"><path style="stroke:none" d="M 54.421875 -141.671875 C 51.492188 -139.691406 48.800781 -138.015625 46.34375 -136.640625 C 43.882812 -135.273438 41.570312 -134.144531 39.40625 -133.25 C 39.09375 -121.707031 38.820312 -111.375 38.59375 -102.25 C 38.375 -93.132812 38.179688 -85.050781 38.015625 -78 C 37.859375 -70.957031 37.734375 -64.867188 37.640625 -59.734375 C 37.546875 -54.597656 37.46875 -50.210938 37.40625 -46.578125 C 37.207031 -38.097656 37.140625 -32.296875 37.203125 -29.171875 C 37.140625 -27.128906 36.898438 -24.46875 36.484375 -21.1875 C 36.078125 -17.90625 35.265625 -14.253906 34.046875 -10.234375 C 32.835938 -6.210938 31.148438 -1.988281 28.984375 2.4375 C 26.816406 6.875 23.992188 11.226562 20.515625 15.5 C 17.046875 19.769531 12.804688 23.816406 7.796875 27.640625 C 2.785156 31.472656 -3.128906 34.789062 -9.953125 37.59375 C -5.171875 35.039062 -1.070312 31.992188 2.34375 28.453125 C 5.757812 24.921875 8.628906 21.097656 10.953125 16.984375 C 13.273438 12.867188 15.15625 8.578125 16.59375 4.109375 C 18.03125 -0.347656 19.113281 -4.789062 19.84375 -9.21875 C 20.582031 -13.65625 21.078125 -17.945312 21.328125 -22.09375 C 21.585938 -26.238281 21.71875 -30.035156 21.71875 -33.484375 L 21.71875 -130.09375 C 19.738281 -129.90625 17.328125 -129.648438 14.484375 -129.328125 C 11.648438 -129.003906 8.445312 -128.585938 4.875 -128.078125 C 8.320312 -130.890625 11.429688 -133.023438 14.203125 -134.484375 C 16.972656 -135.953125 19.347656 -137.039062 21.328125 -137.75 C 23.628906 -138.507812 25.671875 -138.953125 27.453125 -139.078125 C 29.679688 -139.015625 32.148438 -139.046875 34.859375 -139.171875 C 37.578125 -139.304688 40.191406 -139.484375 42.703125 -139.703125 C 45.222656 -139.929688 47.535156 -140.21875 49.640625 -140.5625 C 51.742188 -140.914062 53.335938 -141.285156 54.421875 -141.671875 Z M 54.421875 -141.671875 "/></g></g></g></svg>